<?xml version="1.0" encoding="utf-8"?>
<!-- Generator: Adobe Illustrator 19.1.0, SVG Export Plug-In . SVG Version: 6.00 Build 0)  -->
<svg version="1.1" id="Layer_1" xmlns="http://www.w3.org/2000/svg" xmlns:xlink="http://www.w3.org/1999/xlink" x="0px" y="0px"
	 viewBox="0 0 18 18" style="enable-background:new 0 0 18 18;" xml:space="preserve">
<style type="text/css">
	.st0{fill:#84888D;}
</style>
<path class="st0" d="M9,0C4,0,0,4,0,9s4,9,9,9s9-4,9-9S14,0,9,0z M9,16.4c-4.1,0-7.4-3.3-7.4-7.4S4.9,1.6,9,1.6s7.4,3.3,7.4,7.4
	S13.1,16.4,9,16.4z M12.7,6.4L10.1,9l2.6,2.6c0.3,0.3,0.3,0.8,0,1.1c-0.2,0.2-0.4,0.2-0.6,0.2c-0.2,0-0.4-0.1-0.6-0.2L9,10.1
	l-2.6,2.6c-0.2,0.2-0.4,0.2-0.6,0.2s-0.4-0.1-0.6-0.2c-0.3-0.3-0.3-0.8,0-1.1L7.9,9L5.3,6.4C5,6.1,5,5.6,5.3,5.3
	C5.6,5,6.1,5,6.4,5.3L9,7.9l2.6-2.6c0.3-0.3,0.8-0.3,1.1,0C13,5.6,13,6.1,12.7,6.4z"/>
</svg>
